<svg width="40" height="38" viewBox="0 0 40 38" fill="none" xmlns="http://www.w3.org/2000/svg">
<path d="M27.9168 33.25V30.0833C27.9168 28.4036 27.2496 26.7927 26.0618 25.605C24.8741 24.4173 23.2632 23.75 21.5835 23.75H8.91683C7.23713 23.75 5.62622 24.4173 4.43849 25.605C3.25076 26.7927 2.5835 28.4036 2.5835 30.0833V33.25" stroke="#CDA470" stroke-width="1.58333" stroke-linecap="round" stroke-linejoin="round"/>
<path d="M15.2498 17.4167C18.7476 17.4167 21.5832 14.5811 21.5832 11.0833C21.5832 7.58553 18.7476 4.75 15.2498 4.75C11.752 4.75 8.9165 7.58553 8.9165 11.0833C8.9165 14.5811 11.752 17.4167 15.2498 17.4167Z" stroke="#CDA470" stroke-width="1.58333" stroke-linecap="round" stroke-linejoin="round"/>
<path d="M37.4165 33.25V30.0833C37.4155 28.68 36.9484 27.3169 36.0887 26.2078C35.2289 25.0988 34.0252 24.3066 32.6665 23.9558" stroke="#CDA470" stroke-width="1.58333" stroke-linecap="round" stroke-linejoin="round"/>
<path d="M26.3335 4.95581C27.6958 5.30462 28.9033 6.09692 29.7656 7.2078C30.6279 8.31868 31.0959 9.68496 31.0959 11.0912C31.0959 12.4975 30.6279 13.8638 29.7656 14.9747C28.9033 16.0855 27.6958 16.8778 26.3335 17.2266" stroke="#CDA470" stroke-width="1.58333" stroke-linecap="round" stroke-linejoin="round"/>
</svg>
